<svg xmlns="http://www.w3.org/2000/svg" version="1.1" xmlns:xlink="http://www.w3.org/1999/xlink" xmlns:svgjs="http://svgjs.dev/svgjs" viewBox="0 0 1920 1080"><rect width="1920" height="1080" fill="#201e1e"></rect><g transform="matrix(-2.112515728529184e-16,-1.15,1.15,-2.112515728529184e-16,279.1985015869143,1575.2282768249513)"><path d="M0,-1080C14.428430209768928,-998.4183557111401,93.98167684987747,-708.5010431683297,86.57058125861357,-590.5101342668402C79.15948566734967,-472.51922536535056,-16.73382447936396,-480.630139597189,-44.46657354758344,-372.0545465910625C-72.19932261580291,-263.478953584936,-68.57202606293882,-89.69416831096359,-79.82591315070329,60.94342376991892C-91.07980023846775,211.58101585080144,-137.66829268930144,390.9785214299226,-111.98989607417025,531.7710058942325C-86.31149945903907,672.5634903585425,58.46323230806675,787.660525201497,74.2444665400838,905.6983305557787C90.02570077210086,1023.7361359100605,0.8429995649467408,1093.049432923432,-17.302490682067912,1239.9978380199234C-35.44798092908256,1386.9462431164147,-37.51222338901544,1634.0550674713802,-34.62847494200412,1787.3887611347263C-31.7447264949928,1940.7224547980725,-5.771412490334019,2097.8981268557877,0,2160L 1920 2160 L 1920 -1080 Z" fill="url(&quot;#SvgjsLinearGradient1168&quot;)"></path><path d="M160,-1080C165.42905410168925,-992.5404070488056,183.73645231694184,-725.3961262963822,192.57432461013548,-555.2424422928337C201.41219690332912,-385.08875828928524,217.92078854917497,-229.51105377762912,213.02723375916185,-59.07789597870902C208.13367896914872,111.35526182021107,155.90855284079237,288.85499174936666,163.21299587005666,467.35650450068675C170.51743889932095,645.8580172520069,260.81014885202956,839.7715206612737,256.8538919347476,1011.9311805292116C252.89763501746563,1184.0908403971493,155.61776968882276,1308.9696604631827,139.47545436636483,1500.314463708314C123.3331390439069,1691.6592669534452,156.57924239439413,2050.0524106180524,160,2160L 1920 2160 L 1920 -1080 Z" fill="url(&quot;#SvgjsLinearGradient1169&quot;)"></path><path d="M320,-1080C319.1660573621847,-950.3328501075969,335.9258582518495,-581.6864359978649,314.9963441731082,-301.99710064558127C294.0668300943669,-22.30776529329762,186.59447587418657,341.3159030309259,194.422915527552,598.1360121137017C202.25135518091741,854.9561211964774,341.0374680145594,978.6128892033571,361.9669820933007,1238.9235538510734C382.896496172042,1499.2342184987897,326.9944970155501,2006.487258975179,320,2160L 1920 2160 L 1920 -1080 Z" fill="url(&quot;#SvgjsLinearGradient1170&quot;)"></path><path d="M480,-1080C482.97131538912384,-982.1653613262697,479.5171632473612,-693.1304976630837,497.82789233474296,-492.9921679576181C516.1386214221247,-292.8538382521525,594.8973181228114,-39.52987007658257,589.8643745242905,120.82997823279345C584.8314309257696,281.1898265421695,500.10920132266773,309.6325402740697,467.6302307436174,469.166921898638C435.1512601645671,628.7013035232063,396.0865093759516,872.9209106905281,394.99055104998865,1078.036267980203C393.8945927240257,1283.151625269878,446.8862392961711,1519.5317769667217,461.0544807878396,1699.8590656366878C475.22272227950816,1880.1863543066538,476.84241346463995,2083.3098442727814,480,2160L 1920 2160 L 1920 -1080 Z" fill="url(&quot;#SvgjsLinearGradient1171&quot;)"></path><path d="M640,-1080C633.0360815168748,-994.5742378109062,581.4162026867813,-722.9443694325485,598.2164891012485,-567.4454268654368C615.0167755157157,-411.94648429832523,732.3229501989006,-254.44620949534982,740.8017184868033,-147.00634459733044C749.2804867747061,-39.56647969931106,685.1137465932462,-34.34832143617324,649.0890988286652,77.19376252267944C613.0644510640842,188.73584648153212,525.751781703245,367.7265051581036,524.6538318993175,522.2461591557856C523.5558820953901,676.7658131534675,619.1175709333579,881.373103736874,642.5014000051003,1004.3116865087711C665.8852290768427,1127.2502692806681,667.5030204715532,1118.2443327966378,664.9568063297718,1259.8776557871681C662.4105921879903,1401.5109787776985,631.3835828760405,1704.0912337498148,627.2241151544118,1854.1116244519535C623.0646474327832,2004.1320151540922,637.8706858590687,2109.0186040753256,640,2160L 1920 2160 L 1920 -1080 Z" fill="url(&quot;#SvgjsLinearGradient1172&quot;)"></path><path d="M800,-1080C811.9715998706654,-955.1337505562116,878.7063091151693,-591.0840194173471,871.8295992239925,-330.8025033372691C864.9528893328157,-70.52098725719111,751.7835456973748,200.0959992150523,758.739740652939,481.6890964804678C765.6959356085031,763.2821937458833,906.6900590662003,1079.037596335302,913.5667689573771,1358.7560802552239C920.4434788485539,1638.4745641751458,818.9277948262295,2026.459346709204,800,2160L 1920 2160 L 1920 -1080 Z" fill="url(&quot;#SvgjsLinearGradient1173&quot;)"></path><path d="M960,-1080C947.2012645232312,-991.5827881615671,875.158603903337,-665.9852562106955,883.2075871393872,-549.4967289694026C891.2565703754374,-433.00820172810967,1006.3501412594958,-500.80489193563466,1008.2938994163007,-381.06883655224226C1010.2376575731057,-261.33278116884986,900.4808153373981,-2.708765818189107,894.8701360802172,168.91960333095182C889.2594568230363,340.54797248009277,969.0425873897543,510.77285210384787,974.6298238732155,648.7013783426032C980.2170603566767,786.6299045813586,912.8830459852038,891.6111848108545,928.393554980984,996.4907607634841C943.9040639767643,1101.3703367161138,1056.9336184200668,1140.4920986009247,1067.692877847897,1277.978834058381C1078.4521372757274,1415.4655695158372,1010.8979245226154,1674.4076458512843,992.9491115479659,1821.4111735082208C975.0002985733164,1968.4147011651573,965.4915185913277,2103.568528918037,960,2160L 1920 2160 L 1920 -1080 Z" fill="url(&quot;#SvgjsLinearGradient1174&quot;)"></path><path d="M1120,-1080C1139.4862668217347,-981.6938400973747,1236.2755948154945,-662.0677356866997,1236.917600930408,-490.16304058424845C1237.5596070453216,-318.25834548179716,1140.3072876330393,-178.1184610177076,1123.8520366894818,-48.57182938529246C1107.3967857459243,80.97480224712268,1150.6253896115634,168.87741309519544,1138.1860952690636,287.11674921024246C1125.7468009265638,405.3560853252895,1059.224324608401,517.0631717149337,1049.2162706344827,660.8641873049897C1039.2082166605644,804.6652028950458,1078.1000643477437,984.7372821255349,1078.1377714255536,1149.922842750579C1078.1754785033636,1315.1084033756233,1042.4654750056009,1483.6313581803515,1049.442513101342,1651.977551055255C1056.4195511970831,1820.3237439301583,1108.2404188502237,2075.3295918425424,1120,2160L 1920 2160 L 1920 -1080 Z" fill="url(&quot;#SvgjsLinearGradient1175&quot;)"></path><path d="M1280,-1080C1286.8311128809285,-1010.8232465203148,1319.7824104206693,-838.8568214993282,1320.9866772855712,-664.9394791218888C1322.1909441504731,-491.0221367444493,1312.9144539130439,-210.82136293103494,1287.2256011894115,-36.49594573536302C1261.536748465779,137.8294714603089,1148.0182910426427,241.8744323111283,1166.8535609437768,381.0130240521428C1185.6888308449109,520.1516157931572,1376.607879425073,670.2287286440829,1400.2372205962156,798.3356047107239C1423.8665617673582,926.442480777365,1328.7961752530377,1020.6631336597195,1308.6296079706328,1149.654280451989C1288.463040688228,1278.6454272442586,1284.009418230225,1403.891532206339,1279.2378169017861,1572.2824854643409C1274.4662155733472,1740.6734387223428,1279.872969483631,2062.0470809107237,1280,2160L 1920 2160 L 1920 -1080 Z" fill="url(&quot;#SvgjsLinearGradient1176&quot;)"></path><path d="M1440,-1080C1433.1567027974083,-957.8871883522411,1419.8805981519743,-579.9102486884416,1398.9402167844505,-347.3231301134465C1377.9998354169268,-114.73601153845138,1303.3715543183296,127.48067516386874,1314.3577117948576,315.5227114499708C1325.3438692713855,503.5647477360729,1432.4942469080295,570.1689356011192,1464.8571616436188,780.929087603166C1497.2200763792082,991.6892396052127,1512.6780604823305,1350.2384713961121,1508.535200208394,1580.0836234622511C1504.3923399344574,1809.9287755283901,1451.4225333680656,2063.347270577042,1440,2160L 1920 2160 L 1920 -1080 Z" fill="url(&quot;#SvgjsLinearGradient1177&quot;)"></path><path d="M1600,-1080C1586.1679447092827,-949.204822299911,1522.8667325344477,-556.5746545287925,1517.0076682556964,-295.2289337994659C1511.1486039769452,-33.883213070139334,1531.3498581941642,206.1107176349778,1564.845614327492,488.07432437595935C1598.34137046082,770.0379311169409,1712.1231407769128,1117.8984273757499,1717.982205055664,1396.5527066464233C1723.8412693344153,1675.2069859170967,1619.6637008426108,2032.7587844410705,1600,2160L 1920 2160 L 1920 -1080 Z" fill="url(&quot;#SvgjsLinearGradient1178&quot;)"></path><path d="M1760,-1080C1761.7477352820526,-984.8700892756407,1779.203750909266,-692.1342994164705,1770.486411692316,-509.22053565384414C1761.769072475366,-326.30677189121775,1706.8058046127776,-146.11106900002403,1707.6959646983,17.482582575758556C1708.5861247838225,181.07623415154114,1774.4376803655946,276.5276209121215,1775.8273722054507,472.34137380085133C1777.2170640453069,668.1551266895812,1711.0350531113,996.8235978874308,1716.0341157374367,1192.3650999081374C1721.0331783635734,1387.9066019288439,1798.494100585177,1484.3179025764468,1805.8217479622708,1645.5903859250907C1813.1493953393647,1806.8628692737345,1767.6369579937118,2074.2650643208485,1760,2160L 1920 2160 L 1920 -1080 Z" fill="url(&quot;#SvgjsLinearGradient1179&quot;)"></path></g><defs><linearGradient x1="0.1" y1="0" x2="0" y2="1" id="SvgjsLinearGradient1168"><stop stop-color="#201e1e" offset="0"></stop><stop stop-color="#201e1e" offset="0"></stop></linearGradient><linearGradient x1="0.1" y1="0" x2="0" y2="1" id="SvgjsLinearGradient1169"><stop stop-color="#1d1c1c" offset="0"></stop><stop stop-color="#1d1c1c" offset="0.08333333333333333"></stop></linearGradient><linearGradient x1="0.1" y1="0" x2="0" y2="1" id="SvgjsLinearGradient1170"><stop stop-color="#1b1919" offset="0"></stop><stop stop-color="#1b1919" offset="0.16666666666666666"></stop></linearGradient><linearGradient x1="0.1" y1="0" x2="0" y2="1" id="SvgjsLinearGradient1171"><stop stop-color="#181717" offset="0"></stop><stop stop-color="#181717" offset="0.25"></stop></linearGradient><linearGradient x1="0.1" y1="0" x2="0" y2="1" id="SvgjsLinearGradient1172"><stop stop-color="#151414" offset="0"></stop><stop stop-color="#151414" offset="0.3333333333333333"></stop></linearGradient><linearGradient x1="0.1" y1="0" x2="0" y2="1" id="SvgjsLinearGradient1173"><stop stop-color="#131212" offset="0"></stop><stop stop-color="#131212" offset="0.4166666666666667"></stop></linearGradient><linearGradient x1="0.1" y1="0" x2="0" y2="1" id="SvgjsLinearGradient1174"><stop stop-color="#100f0f" offset="0"></stop><stop stop-color="#100f0f" offset="0.5"></stop></linearGradient><linearGradient x1="0.1" y1="0" x2="0" y2="1" id="SvgjsLinearGradient1175"><stop stop-color="#0e0d0d" offset="0"></stop><stop stop-color="#0e0d0d" offset="0.5833333333333334"></stop></linearGradient><linearGradient x1="0.1" y1="0" x2="0" y2="1" id="SvgjsLinearGradient1176"><stop stop-color="#0b0a0a" offset="0"></stop><stop stop-color="#0b0a0a" offset="0.6666666666666666"></stop></linearGradient><linearGradient x1="0.1" y1="0" x2="0" y2="1" id="SvgjsLinearGradient1177"><stop stop-color="#080808" offset="0"></stop><stop stop-color="#080808" offset="0.75"></stop></linearGradient><linearGradient x1="0.1" y1="0" x2="0" y2="1" id="SvgjsLinearGradient1178"><stop stop-color="#060505" offset="0"></stop><stop stop-color="#060505" offset="0.8333333333333334"></stop></linearGradient><linearGradient x1="0.1" y1="0" x2="0" y2="1" id="SvgjsLinearGradient1179"><stop stop-color="#030303" offset="0"></stop><stop stop-color="#030303" offset="0.9166666666666666"></stop></linearGradient></defs></svg>