<svg width="100" height="64" viewBox="0 0 100 64" fill="none" xmlns="http://www.w3.org/2000/svg">
<g clip-path="url(#clip0)">
<path fill-rule="evenodd" clip-rule="evenodd" d="M89.9858 13.5525C85.9602 10.0353 81.2169 7.94958 75.9306 7.18782C69.3223 6.23226 63.1073 7.43341 57.3279 10.799C56.9249 11.0331 56.9364 11.0292 56.7446 10.5898C54.158 4.65691 49.6795 1.16087 43.2784 0.134315C43.0616 0.0997768 42.818 0.155423 42.6242 0C42.5225 0 42.4188 0 42.3171 0C42.1617 0.11129 42.0082 0.0921022 41.8547 0C41.3155 0 40.7783 0 40.2391 0C40.0856 0.0882646 39.9321 0.115128 39.7766 0C39.6749 0 39.5714 0 39.4697 0C39.4351 0.0326195 39.3929 0.036458 39.3507 0.0383768C38.8671 0.186124 38.3606 0.191876 37.8675 0.285897C30.8485 1.64249 25.4413 7.207 24.3342 14.2336C24.267 14.6634 24.1922 15.099 24.1903 15.5307C24.1903 15.9279 24.0099 15.949 23.6971 15.9183C22.3809 15.7936 21.0626 15.7955 19.7444 15.9164C15.4444 16.3078 11.5857 17.8352 8.21438 20.5273C3.97192 23.914 1.35084 28.3003 0.335795 33.6365C0.222586 34.2275 0.170769 34.8281 0.0863423 35.4248C0.0729108 35.5188 0.115128 35.6359 0 35.6992C0 35.8527 0 36.0081 0 36.1616C0.0978586 36.3151 0.0978586 36.4686 0 36.6221C0 37.2131 0 37.8022 0 38.3932C0.0978586 38.5467 0.0978586 38.7002 0 38.8537C0 39.0072 0 39.1626 0 39.3161C0.0287819 39.3488 0.0383841 39.3852 0.0383841 39.4236C0.176537 39.8227 0.153503 40.2487 0.214904 40.6593C0.896077 45.1646 2.78801 49.0867 5.91757 52.3889C9.39443 56.0615 13.6638 58.2585 18.668 58.9857C21.4349 59.3867 24.1864 59.2524 26.9034 58.5713C27.2047 58.4945 27.4158 58.5348 27.6652 58.7305C30.9828 61.3151 34.7417 62.8022 38.9228 63.2339C39.0302 63.2455 39.1588 63.1994 39.2394 63.3203C39.3679 63.3203 39.4946 63.3203 39.6231 63.3203C39.7766 63.209 39.9321 63.2282 40.0856 63.3203C40.7015 63.3203 41.3155 63.3203 41.9315 63.3203C42.06 63.232 42.1886 63.2263 42.3171 63.3203C42.4706 63.3203 42.6242 63.3203 42.7777 63.3203C42.818 63.2877 42.8602 63.28 42.9043 63.28C43.2996 63.1591 43.7179 63.1745 44.1227 63.115C48.2021 62.524 51.8248 60.9064 54.9908 58.2719C55.198 58.1012 55.3227 58.0916 55.5453 58.2451C59.6918 61.1329 64.2893 62.7811 69.3165 63.2359C69.4221 63.2455 69.5525 63.1917 69.6293 63.3203C69.8096 63.3203 69.9881 63.3203 70.1685 63.3203C70.3469 63.209 70.5273 63.2186 70.7057 63.3203C71.3984 63.3203 72.0911 63.3203 72.7838 63.3203C72.9373 63.2224 73.0908 63.2186 73.2462 63.3203C73.4247 63.3203 73.605 63.3203 73.7835 63.3203C73.8046 63.303 73.8257 63.2934 73.8487 63.2877C74.0847 63.1745 74.3476 63.2128 74.5932 63.1879C80.9099 62.5221 86.4168 60.043 91.0546 55.7161C95.7882 51.299 98.7758 45.8765 99.668 39.4639C101.109 29.1273 97.8548 20.4294 89.9858 13.5525ZM45.7153 42.7431C45.7153 47.5746 45.7115 52.4081 45.723 57.2396C45.723 57.5946 45.6539 57.7174 45.2682 57.7136C42.9983 57.6944 40.7303 57.6982 38.4623 57.7097C38.1591 57.7116 38.0785 57.6291 38.0785 57.3279C38.0862 47.5996 38.0862 37.8713 38.0766 28.143C38.0766 27.8245 38.1821 27.7669 38.4699 27.7688C40.738 27.7784 43.0079 27.7823 45.2759 27.7669C45.6251 27.7631 45.723 27.8552 45.723 28.2082C45.7115 33.0532 45.7134 37.8982 45.7153 42.7431ZM41.9564 25.3128C39.3181 25.3166 37.1786 23.1887 37.1748 20.558C37.169 17.9407 39.2643 15.8512 41.895 15.8531C44.5065 15.855 46.6325 17.9849 46.6383 20.606C46.6421 23.204 44.5468 25.3089 41.9564 25.3128ZM91.4921 49.4224C88.4239 53.3905 84.4865 56.0941 79.6915 57.5505C77.1702 58.3161 74.5836 58.6231 71.88 58.6307C67.9906 58.5981 64.1473 57.9668 60.5438 56.2265C56.0116 54.0391 52.6499 50.637 50.3243 46.2027C48.5417 42.8007 47.7646 39.1492 47.684 35.3231C47.6034 31.5354 48.1868 27.8705 49.9156 24.48C53.214 18.0156 58.3813 13.7654 65.4502 12.0405C70.9072 10.7107 76.3432 10.9755 81.6237 13.0037C85.6033 14.5349 88.8998 17.0025 91.4805 20.4141C91.6686 20.6635 91.6744 20.7806 91.4096 20.9763C90.4003 21.7227 89.4044 22.4902 88.4201 23.2692C88.1821 23.4573 88.0862 23.4016 87.9193 23.1867C85.2214 19.6926 81.7829 17.2366 77.4752 16.2196C69.706 14.3871 62.8713 16.139 57.326 22.0201C54.5783 24.9328 53.1276 28.5095 52.6921 32.4871C52.3026 36.0388 52.5846 39.531 54.0583 42.8083C56.8328 48.9696 61.5799 52.74 68.2305 53.9988C71.6268 54.6396 75.0173 54.5207 78.3425 53.4749C81.1305 52.5981 83.5482 51.0956 85.6781 49.1078C86.484 48.3537 87.2362 47.5497 87.925 46.6862C88.0862 46.4848 88.1956 46.456 88.4105 46.6229C89.4121 47.4 90.4195 48.1714 91.446 48.9197C91.7051 49.1097 91.6475 49.221 91.4921 49.4224Z" fill="#5A82B0"/>
</g>
<defs>
<clipPath id="clip0">
<rect width="100" height="63.3203" fill="white"/>
</clipPath>
</defs>
</svg>
